<svg width="20" height="20" viewBox="0 0 20 20" fill="none" xmlns="http://www.w3.org/2000/svg">
<path d="M10.291 0.5C10.9699 0.500031 11.6319 0.568419 12.2715 0.696289L9.08789 9.85254L9.02637 10.0293L9.09668 10.2031L12.7188 19.2021C11.9426 19.3947 11.1297 19.5 10.291 19.5C4.87021 19.5 0.5 15.2333 0.5 10C0.5 4.76666 4.87021 0.5 10.291 0.5Z" fill="#D2555A" stroke="black"/>
<path d="M13.9407 1.43213C16.0057 2.39416 17.6651 4.03822 18.6165 6.05811L11.5579 8.28662L13.9407 1.43213Z" fill="#FFC36E" stroke="black"/>
<path d="M19.3384 8.37122C19.4439 8.92889 19.5005 9.50364 19.5005 10.0909C19.5003 13.701 17.4211 16.8456 14.3501 18.4532L11.313 10.9054L19.3384 8.37122Z" fill="#A5D76E" stroke="black"/>
</svg>
